<svg viewBox="66.49999237060547 49.5 67.00000762939453 101" height="65" width="65" xmlns="http://www.w3.org/2000/svg" data-type="color" role="img" preserveAspectRatio="xMidYMid meet" style="">
    <g>
        <path d="M130.227 150.5H69.773a3.277 3.277 0 0 1-3.273-3.282V52.782a3.277 3.277 0 0 1 3.273-3.282h60.454a3.278 3.278 0 0 1 3.273 3.282v94.436a3.278 3.278 0 0 1-3.273 3.282zm-57.18-6.564h53.907V56.064H73.047v87.872z" fill="#612A7F" data-color="1"></path>
        <path d="M116.638 71.853H83.361a3.379 3.379 0 0 0-3.374 3.384v46.65a3.38 3.38 0 0 0 3.374 3.384h33.277a3.379 3.379 0 0 0 3.374-3.384v-46.65a3.378 3.378 0 0 0-3.374-3.384z" fill="#AF92BD" data-color="2"></path>
        <path d="M109.565 62.242h-19.13c-1.118 0-2.025.909-2.025 2.03s.907 2.03 2.025 2.03h19.13c1.118 0 2.025-.909 2.025-2.03s-.907-2.03-2.025-2.03z" fill="#612A7F" data-color="1"></path>
        <path fill="#612A7F" d="M104.155 134.829a4.16 4.16 0 0 1-4.155 4.166 4.16 4.16 0 0 1-4.155-4.166 4.16 4.16 0 0 1 4.155-4.166 4.16 4.16 0 0 1 4.155 4.166z" data-color="1"></path>
    </g>
</svg>
